<svg viewBox="0 0 24 24" width="24" height="24" xmlns="http://www.w3.org/2000/svg" class="visit-beta__logo"><path d="M12 23.4c6.24 0 11.4-5.149 11.4-11.4C23.4 5.76 18.24.6 11.99.6 5.749.6.6 5.76.6 12c0 6.251 5.16 11.4 11.4 11.4zm-2.807-8.956V7.59c0-.386.26-.614.648-.682l5.671-1.17c.603-.114.944.045.944.67v8.468c0 1.5-1.103 2.102-2.217 2.102-.898 0-1.591-.67-1.603-1.523-.01-.943.637-1.409 1.728-1.659l.818-.182c.273-.057.387-.25.387-.489v-3.91c0-.204-.08-.261-.364-.204l-4.807.966c-.205.045-.274.09-.274.363v5.797c0 1.512-1.136 2.171-2.25 2.16-.886-.012-1.568-.694-1.58-1.546 0-.955.66-1.489 1.682-1.694l.91-.181c.216-.046.307-.205.307-.432z"></path></svg>
