<svg width="100%" height="100%" viewBox="0 0 34 34" version="1.1" xmlns="http://www.w3.org/2000/svg" xmlns:xlink="http://www.w3.org/1999/xlink" xml:space="preserve" style="fill-rule:evenodd;clip-rule:evenodd;stroke-linejoin:round;stroke-miterlimit:1.41421"><path d="M26.97,23c0.536,0 1.03,-0.38 1.03,-1.124l0,-9.752c0,-0.744 -0.494,-1.124 -1.03,-1.124c-0.294,0 -0.57,0.097 -0.889,0.283l-8.26,4.617c-0.436,0.243 -0.729,0.494 -0.804,0.874l0,-4.65c0,-0.744 -0.503,-1.124 -1.031,-1.124c-0.301,0 -0.578,0.097 -0.896,0.283l-8.261,4.617c-0.511,0.283 -0.829,0.574 -0.829,1.1c0,0.518 0.318,0.817 0.829,1.1l8.261,4.617c0.318,0.186 0.595,0.283 0.896,0.283c0.528,0 1.031,-0.38 1.031,-1.124l0,-4.658c0.075,0.388 0.368,0.639 0.804,0.882l8.26,4.617c0.319,0.186 0.595,0.283 0.889,0.283Z" style="fill-rule:nonzero"></path></svg>
