<svg width="24" height="24" viewBox="0 0 24 24" xmlns="http://www.w3.org/2000/svg" aria-hidden="true"><path d="M13.079 19.712c1.076 0 2.688-.79 2.688-2.922v-6.702c0-.388.073-.468.417-.542l3.347-.732a.48.48 0 0 0 .403-.483V5.577c0-.388-.315-.637-.688-.564l-3.765.82c-.469.103-.725.359-.725.77l.015 8.144c.036.359-.132.593-.455.659l-1.164.242c-1.465.307-2.153 1.054-2.153 2.16 0 1.12.864 1.904 2.08 1.904zM12.046 8.675a.503.503 0 0 0 .498-.498.497.497 0 0 0-.498-.49H5.498a.492.492 0 0 0-.498.49.5.5 0 0 0 .498.498h6.548zm0 2.607a.5.5 0 0 0 .498-.505.49.49 0 0 0-.498-.483H5.498a.486.486 0 0 0-.498.483c0 .278.212.505.498.505h6.548zm0 2.608a.494.494 0 1 0 0-.989H5.498a.492.492 0 0 0-.498.49.49.49 0 0 0 .498.499h6.548z"></path></svg>
